<svg xmlns="http://www.w3.org/2000/svg" xmlns:xlink="http://www.w3.org/1999/xlink" width="500" zoomAndPan="magnify" viewBox="0 0 375 374.999991" height="500" preserveAspectRatio="xMidYMid meet" version="1.0"><defs><g/><clipPath id="c709b1fab0"><path d="M 0 1.5 L 373.5 1.5 L 373.5 375 L 0 375 Z M 0 1.5 " clip-rule="nonzero"/></clipPath></defs><g clip-path="url(#c709b1fab0)"><path fill="#000000" d="M 373.5 188.25 C 373.5 191.304688 373.425781 194.359375 373.273438 197.414062 C 373.125 200.464844 372.898438 203.511719 372.601562 206.554688 C 372.300781 209.597656 371.925781 212.628906 371.480469 215.652344 C 371.03125 218.675781 370.507812 221.683594 369.910156 224.683594 C 369.316406 227.679688 368.644531 230.660156 367.902344 233.625 C 367.160156 236.589844 366.34375 239.535156 365.457031 242.460938 C 364.570312 245.386719 363.613281 248.285156 362.582031 251.164062 C 361.554688 254.042969 360.453125 256.890625 359.285156 259.714844 C 358.113281 262.539062 356.875 265.332031 355.570312 268.097656 C 354.261719 270.859375 352.890625 273.585938 351.449219 276.285156 C 350.007812 278.980469 348.503906 281.636719 346.929688 284.257812 C 345.359375 286.878906 343.726562 289.460938 342.027344 292.003906 C 340.328125 294.542969 338.570312 297.042969 336.75 299.496094 C 334.929688 301.953125 333.046875 304.359375 331.109375 306.722656 C 329.171875 309.085938 327.175781 311.398438 325.121094 313.664062 C 323.070312 315.929688 320.964844 318.140625 318.800781 320.300781 C 316.640625 322.464844 314.429688 324.570312 312.164062 326.621094 C 309.898438 328.675781 307.585938 330.671875 305.222656 332.609375 C 302.859375 334.546875 300.453125 336.429688 297.996094 338.25 C 295.542969 340.070312 293.042969 341.828125 290.503906 343.527344 C 287.960938 345.226562 285.378906 346.859375 282.757812 348.429688 C 280.136719 350.003906 277.480469 351.507812 274.785156 352.949219 C 272.085938 354.390625 269.359375 355.761719 266.597656 357.070312 C 263.832031 358.375 261.039062 359.613281 258.214844 360.785156 C 255.390625 361.953125 252.542969 363.054688 249.664062 364.082031 C 246.785156 365.113281 243.886719 366.070312 240.960938 366.957031 C 238.035156 367.84375 235.089844 368.660156 232.125 369.402344 C 229.160156 370.144531 226.179688 370.816406 223.183594 371.410156 C 220.183594 372.007812 217.175781 372.53125 214.152344 372.980469 C 211.128906 373.425781 208.097656 373.800781 205.054688 374.101562 C 202.011719 374.398438 198.964844 374.625 195.914062 374.773438 C 192.859375 374.925781 189.804688 375 186.75 375 C 183.695312 375 180.640625 374.925781 177.585938 374.773438 C 174.535156 374.625 171.488281 374.398438 168.445312 374.101562 C 165.402344 373.800781 162.371094 373.425781 159.347656 372.980469 C 156.324219 372.53125 153.3125 372.007812 150.316406 371.410156 C 147.320312 370.816406 144.339844 370.144531 141.375 369.402344 C 138.410156 368.660156 135.464844 367.84375 132.539062 366.957031 C 129.613281 366.070312 126.714844 365.113281 123.835938 364.082031 C 120.957031 363.054688 118.109375 361.953125 115.285156 360.785156 C 112.460938 359.613281 109.667969 358.375 106.902344 357.070312 C 104.140625 355.761719 101.410156 354.390625 98.714844 352.949219 C 96.019531 351.507812 93.363281 350.003906 90.742188 348.429688 C 88.121094 346.859375 85.539062 345.226562 82.996094 343.527344 C 80.457031 341.828125 77.957031 340.070312 75.503906 338.25 C 73.046875 336.429688 70.640625 334.546875 68.277344 332.609375 C 65.914062 330.671875 63.601562 328.675781 61.335938 326.621094 C 59.070312 324.570312 56.859375 322.464844 54.699219 320.300781 C 52.535156 318.140625 50.429688 315.929688 48.378906 313.664062 C 46.324219 311.398438 44.328125 309.085938 42.390625 306.722656 C 40.453125 304.359375 38.570312 301.953125 36.75 299.496094 C 34.929688 297.042969 33.171875 294.542969 31.472656 292.003906 C 29.773438 289.460938 28.140625 286.878906 26.570312 284.257812 C 24.996094 281.636719 23.492188 278.980469 22.050781 276.285156 C 20.609375 273.585938 19.238281 270.859375 17.929688 268.097656 C 16.625 265.332031 15.386719 262.539062 14.214844 259.714844 C 13.046875 256.890625 11.945312 254.042969 10.917969 251.164062 C 9.886719 248.285156 8.929688 245.386719 8.042969 242.460938 C 7.152344 239.535156 6.339844 236.589844 5.597656 233.625 C 4.855469 230.660156 4.183594 227.679688 3.589844 224.683594 C 2.992188 221.683594 2.46875 218.675781 2.019531 215.652344 C 1.574219 212.628906 1.199219 209.597656 0.898438 206.554688 C 0.601562 203.511719 0.375 200.464844 0.226562 197.414062 C 0.0742188 194.359375 0 191.304688 0 188.25 C 0 185.195312 0.0742188 182.140625 0.226562 179.085938 C 0.375 176.035156 0.601562 172.988281 0.898438 169.945312 C 1.199219 166.902344 1.574219 163.871094 2.019531 160.847656 C 2.46875 157.824219 2.992188 154.8125 3.589844 151.816406 C 4.183594 148.820312 4.855469 145.839844 5.597656 142.875 C 6.339844 139.910156 7.152344 136.964844 8.042969 134.039062 C 8.929688 131.113281 9.886719 128.214844 10.917969 125.335938 C 11.945312 122.457031 13.046875 119.609375 14.214844 116.785156 C 15.386719 113.960938 16.625 111.167969 17.929688 108.402344 C 19.238281 105.640625 20.609375 102.910156 22.050781 100.214844 C 23.492188 97.519531 24.996094 94.863281 26.570312 92.242188 C 28.140625 89.621094 29.773438 87.039062 31.472656 84.496094 C 33.171875 81.957031 34.929688 79.457031 36.75 77.003906 C 38.570312 74.546875 40.453125 72.140625 42.390625 69.777344 C 44.328125 67.414062 46.324219 65.101562 48.378906 62.835938 C 50.429688 60.570312 52.535156 58.359375 54.699219 56.199219 C 56.859375 54.035156 59.070312 51.929688 61.335938 49.878906 C 63.601562 47.824219 65.914062 45.828125 68.277344 43.890625 C 70.640625 41.953125 73.046875 40.070312 75.503906 38.25 C 77.957031 36.429688 80.457031 34.671875 82.996094 32.972656 C 85.539062 31.273438 88.121094 29.640625 90.742188 28.070312 C 93.363281 26.496094 96.019531 24.992188 98.714844 23.550781 C 101.410156 22.109375 104.140625 20.738281 106.902344 19.429688 C 109.667969 18.125 112.460938 16.886719 115.285156 15.714844 C 118.109375 14.546875 120.957031 13.445312 123.835938 12.417969 C 126.714844 11.386719 129.613281 10.429688 132.539062 9.542969 C 135.464844 8.652344 138.410156 7.839844 141.375 7.097656 C 144.339844 6.355469 147.320312 5.683594 150.316406 5.089844 C 153.3125 4.492188 156.324219 3.96875 159.347656 3.519531 C 162.371094 3.074219 165.402344 2.699219 168.445312 2.398438 C 171.488281 2.101562 174.535156 1.875 177.585938 1.726562 C 180.640625 1.574219 183.695312 1.5 186.75 1.5 C 189.804688 1.5 192.859375 1.574219 195.914062 1.726562 C 198.964844 1.875 202.011719 2.101562 205.054688 2.398438 C 208.097656 2.699219 211.128906 3.074219 214.152344 3.519531 C 217.175781 3.96875 220.183594 4.492188 223.183594 5.089844 C 226.179688 5.683594 229.160156 6.355469 232.125 7.097656 C 235.089844 7.839844 238.035156 8.652344 240.960938 9.542969 C 243.886719 10.429688 246.785156 11.386719 249.664062 12.417969 C 252.542969 13.445312 255.390625 14.546875 258.214844 15.714844 C 261.039062 16.886719 263.832031 18.125 266.597656 19.429688 C 269.359375 20.738281 272.089844 22.109375 274.785156 23.550781 C 277.480469 24.992188 280.136719 26.496094 282.757812 28.070312 C 285.378906 29.640625 287.960938 31.273438 290.503906 32.972656 C 293.042969 34.671875 295.542969 36.429688 297.996094 38.25 C 300.453125 40.070312 302.859375 41.953125 305.222656 43.890625 C 307.585938 45.828125 309.898438 47.824219 312.164062 49.878906 C 314.429688 51.929688 316.640625 54.035156 318.800781 56.199219 C 320.964844 58.359375 323.070312 60.570312 325.121094 62.835938 C 327.175781 65.101562 329.171875 67.414062 331.109375 69.777344 C 333.046875 72.140625 334.929688 74.546875 336.75 77.003906 C 338.570312 79.457031 340.328125 81.957031 342.027344 84.496094 C 343.726562 87.039062 345.359375 89.621094 346.929688 92.242188 C 348.503906 94.863281 350.007812 97.519531 351.449219 100.214844 C 352.890625 102.910156 354.261719 105.640625 355.570312 108.402344 C 356.875 111.167969 358.113281 113.960938 359.285156 116.785156 C 360.453125 119.609375 361.554688 122.457031 362.582031 125.335938 C 363.613281 128.214844 364.570312 131.113281 365.457031 134.039062 C 366.347656 136.964844 367.160156 139.910156 367.902344 142.875 C 368.644531 145.839844 369.316406 148.820312 369.910156 151.816406 C 370.507812 154.8125 371.03125 157.824219 371.480469 160.847656 C 371.925781 163.871094 372.300781 166.902344 372.601562 169.945312 C 372.898438 172.988281 373.125 176.035156 373.273438 179.085938 C 373.425781 182.140625 373.5 185.195312 373.5 188.25 Z M 373.5 188.25 " fill-opacity="1" fill-rule="nonzero"/></g><g fill="#ffffff" fill-opacity="1"><g transform="translate(102.447281, 234.549366)"><g><path d="M 75.3125 -101.515625 L 75.3125 -34.265625 C 75.3125 -22.847656 72.210938 -14.113281 66.015625 -8.0625 C 59.828125 -2.007812 51.3125 1.015625 40.46875 1.015625 C 28.945312 1.015625 19.753906 -2.195312 12.890625 -8.625 C 6.023438 -15.0625 2.59375 -24.332031 2.59375 -36.4375 L 30.53125 -36.4375 C 30.625 -28.46875 33.550781 -24.484375 39.3125 -24.484375 C 44.5 -24.484375 47.09375 -27.742188 47.09375 -34.265625 L 47.09375 -101.515625 Z M 75.3125 -101.515625 "/></g></g></g><g fill="#f4f1eb" fill-opacity="1"><g transform="translate(168.256443, 230.088097)"><g><path d="M 120.078125 -96.3125 L 120.078125 0 L 93.296875 0 L 93.296875 -53.140625 L 75.140625 0 L 52.734375 0 L 34.421875 -53.546875 L 34.421875 0 L 7.65625 0 L 7.65625 -96.3125 L 40.03125 -96.3125 L 64.203125 -33.75 L 87.84375 -96.3125 Z M 120.078125 -96.3125 "/></g></g></g></svg>